Coordinates
version=1
nRows=9
nColumns=36
inDegrees=yes

Units are S.I. units (second, meters, Newtons, ...)
If the header above contains a line with 'inDegrees', this indicates whether rotational values are in degrees (yes) or radians (no).

endheader
time	pelvis_tilt	pelvis_list	pelvis_rotation	pelvis_tx	pelvis_ty	pelvis_tz	hip_flexion_r	hip_adduction_r	hip_rotation_r	knee_angle_r	knee_angle_r_beta	ankle_angle_r	subtalar_angle_r	mtp_angle_r	hip_flexion_l	hip_adduction_l	hip_rotation_l	knee_angle_l	knee_angle_l_beta	ankle_angle_l	subtalar_angle_l	mtp_angle_l	lumbar_extension	lumbar_bending	lumbar_rotation	arm_flex_r	arm_add_r	arm_rot_r	elbow_flex_r	pro_sup_r	arm_flex_l	arm_add_l	arm_rot_l	elbow_flex_l	pro_sup_l
      1.42916670	    -15.07127026	     -0.03915717	      2.17919393	     -0.59333387	      1.23138380	     -0.05331260	     15.29672798	     -5.74872622	     -5.05268865	     46.55920692	      0.81261146	      2.37973966	    -12.36940299	     -7.49999987	     12.21349837	     -5.62327708	     -4.52499787	     39.30482412	      0.68599859	     12.23528230	     -2.85141212	     -7.49999987	     -6.90406205	      1.49225983	      0.18885912	    106.99055331	     -9.48851547	     28.25749518	    100.72226144	     94.74630948	    107.36555514	     -5.79289534	     25.62411081	     98.75286662	     81.84712269
      1.43333330	    -14.83516575	     -0.32168842	      1.99808946	     -0.58592529	      1.23766769	     -0.05268654	     14.75448657	     -5.39067508	     -4.98014507	     46.11463230	      0.80485217	      0.34254391	    -11.65525790	     -7.49999987	     11.36034872	     -6.03290756	     -4.91508823	     38.66689728	      0.67486467	     10.15006863	     -2.80220530	     -7.49999987	     -6.74470053	      1.67364578	      0.28557089	    107.18860641	     -9.26069964	     27.75406776	    100.97072073	     94.83593994	    107.72340279	     -5.52926830	     25.67546829	     99.21416386	     82.25604986
      1.43750000	    -14.54597066	     -0.51629898	      1.74808396	     -0.57827855	      1.24133219	     -0.05398527	     14.40604956	     -5.36061837	     -5.08922959	     46.02428254	      0.80327527	     -2.05714813	    -11.38161772	     -7.49999987	     10.61364251	     -6.21993143	     -4.94882953	     38.21511722	      0.66697962	      7.84220569	     -2.83152665	     -7.49999987	     -6.71526302	      1.92750819	      0.22364039	    107.72170709	     -8.99785641	     27.58566087	    101.00544703	     95.01420871	    108.29393622	     -5.41458740	     25.57294816	     99.56291910	     82.74531369
      1.44166670	    -14.27216722	     -0.54331721	      1.62584802	     -0.57160181	      1.25079374	     -0.05536621	     13.67516299	     -5.55645752	     -5.21782132	     45.01326455	      0.78562967	     -4.62694832	    -10.60287178	     -7.49999987	     10.03262155	     -6.07371048	     -4.91304073	     37.71037608	      0.65817022	      5.22254783	     -2.78981605	     -7.49999987	     -6.68806296	      2.18358465	      0.13062929	    108.19167972	     -8.47774526	     27.57858005	    101.12298356	     96.52091257	    108.42412471	     -5.47690331	     25.06948203	    100.60128206	     87.10039973
      1.44583330	    -13.92687513	     -0.62450172	      1.47532663	     -0.56331786	      1.25609303	     -0.05540931	     13.31012643	     -5.67782468	     -5.04004047	     44.53689487	      0.77731545	     -7.82014247	    -10.07568777	     -7.49999987	      9.43140347	     -6.09044607	     -4.55009589	     37.36560005	      0.65215275	      2.60501685	     -2.42561966	     -7.49999987	     -6.67080481	      2.32021940	      0.24812711	    108.46877070	     -8.35405896	     27.43076993	    101.71901269	     96.51636152	    108.71772330	     -5.35447082	     25.12066045	    101.33611591	     87.20035656
      1.45000000	    -13.72717801	     -0.61156103	      0.85142991	     -0.55212371	      1.25892321	     -0.05592324	     12.98678686	     -5.91972678	     -4.87397873	     44.19065921	      0.77127250	    -10.79483672	     -9.79661298	     -7.49999987	      8.78876467	     -6.01004235	     -4.79406037	     37.02536106	      0.64621446	     -0.37584178	     -2.31046003	     -7.49999987	     -6.29727402	      2.40280323	      0.67257791	    108.49786546	     -8.37164932	     27.33635711	    102.22513355	     96.51631143	    108.65354951	     -5.55131596	     25.26059892	    102.20384771	     87.32656172
      1.45416670	    -13.55436357	     -0.51448404	      0.48801999	     -0.54615170	      1.26237054	     -0.05528345	     12.79694939	     -6.08321641	     -4.70430894	     43.85092818	      0.76534308	    -13.07937947	     -9.52168584	     -7.49999987	      8.42980634	     -5.91384400	     -4.47809660	     36.94641540	      0.64483660	     -2.35764006	     -2.06800999	     -7.49999987	     -5.98781716	      2.36139883	      1.09110016	    108.78856183	     -8.26782666	     27.26862941	    102.52811439	     96.51576206	    108.80120882	     -5.81503597	     25.63684444	    102.80561123	     87.47762069
      1.45833330	    -13.28370503	     -0.38943763	      0.47325847	     -0.53973115	      1.26605728	     -0.05116075	     12.36592262	     -6.07841831	     -4.57636662	     43.46416544	      0.75859279	    -14.88172516	     -9.61664656	     -7.49999987	      8.11587424	     -6.07339060	     -4.36562913	     37.01455816	      0.64602591	     -3.83815779	     -2.32154045	     -7.49999987	     -5.70035741	      2.13045178	      1.22954219	    108.95351774	     -8.15208442	     27.22321028	    102.54458955	     96.51988041	    108.97581459	     -6.25914074	     26.20512234	    103.15033209	     87.71216631
      1.46250000	    -13.18348551	     -0.28318385	      0.50761295	     -0.53303206	      1.27176141	     -0.05378951	     12.27069448	     -6.27841010	     -4.36702684	     43.21678648	      0.75427522	    -16.45236033	     -9.04190176	     -7.49999987	      7.92024042	     -5.95470032	     -4.12327785	     36.74068933	      0.64124600	     -5.45375927	     -2.14696904	     -7.49999987	     -5.43318069	      2.10432196	      1.45435948	    109.24543554	     -8.16673403	     27.40544645	    102.71270219	     96.49271105	    108.97547187	     -6.80067189	     26.65317892	    103.69390808	     87.91720253
